<?xml version="1.0" encoding="UTF-8"?>
<svg xmlns="http://www.w3.org/2000/svg" viewBox="0 0 244 244">
    <rect x="4" y="4" width="236" height="236" rx="30.159" ry="30.159" fill="#a8b8c6" stroke="#586167" stroke-miterlimit="10" stroke-width="8"/>
      <g opacity=".66">
        <path d="M195.368,197.759l-18.639-34.378-2.034-3.899-20.935,38.277h-24.737l33.276-57.745-30.783-53.671h25.279l14.002,26.255c1.315,2.453,2.519,4.748,3.6,6.866,1.409-2.446,2.716-4.667,3.908-6.64l15.375-26.481h24.46l-31.66,52.54,33.815,58.876h-24.928ZM31.556,197.759V46.241h47.966c11.045,0,19.047.97,24.462,2.964,7.502,2.742,13.564,7.878,18.011,15.264,4.369,7.258,6.583,16.228,6.583,26.661,0,13.746-3.597,25.167-10.691,33.947-7.25,8.972-19.691,13.521-36.976,13.521h-27.573v59.16h-21.783ZM81.209,115.427c8.871,0,15.345-1.933,19.244-5.746,3.88-3.794,5.848-9.768,5.848-17.757,0-5.225-.998-9.721-2.965-13.364-1.901-3.517-4.158-5.927-6.709-7.164-1.868-.904-6.113-1.982-15.715-1.982h-27.573v46.014h27.871Z" fill="none" stroke="#fff" stroke-miterlimit="10" stroke-width="10"/>
      </g>
      <path d="M195.368,197.759l-18.639-34.378-2.034-3.899-20.935,38.277h-24.737l33.276-57.745-30.783-53.671h25.279l14.002,26.255c1.315,2.453,2.519,4.748,3.6,6.866,1.409-2.446,2.716-4.667,3.908-6.64l15.375-26.481h24.46l-31.66,52.54,33.815,58.876h-24.928ZM31.556,197.759V46.241h47.966c11.045,0,19.047.97,24.462,2.964,7.502,2.742,13.564,7.878,18.011,15.264,4.369,7.258,6.583,16.228,6.583,26.661,0,13.746-3.597,25.167-10.691,33.947-7.25,8.972-19.691,13.521-36.976,13.521h-27.573v59.16h-21.783ZM81.209,115.427c8.871,0,15.345-1.933,19.244-5.746,3.88-3.794,5.848-9.768,5.848-17.757,0-5.225-.998-9.721-2.965-13.364-1.901-3.517-4.158-5.927-6.709-7.164-1.868-.904-6.113-1.982-15.715-1.982h-27.573v46.014h27.871Z" fill="#231f20"/>
</svg>